<svg width="18" height="19" viewBox="0 0 18 19" fill="none" xmlns="http://www.w3.org/2000/svg">
<path d="M16.95 18.2427C17.25 18.2427 17.5 18.1427 17.7 17.9427C17.9 17.7427 18 17.4927 18 17.1927V13.1427C18 12.9093 17.925 12.705 17.775 12.5297C17.625 12.3543 17.4333 12.242 17.2 12.1927L13.75 11.4927C13.5167 11.4593 13.279 11.4803 13.037 11.5557C12.795 11.631 12.5993 11.7433 12.45 11.8927L10.1 14.2427C8.83333 13.476 7.675 12.5677 6.625 11.5177C5.575 10.4677 4.7 9.34268 4 8.14268L6.4 5.69268C6.55 5.54268 6.646 5.37168 6.688 5.17968C6.73 4.98768 6.734 4.77534 6.7 4.54268L6.05 1.04268C6.01667 0.809342 5.90833 0.617676 5.725 0.467676C5.54167 0.317676 5.33333 0.242676 5.1 0.242676H1.05C0.749999 0.242676 0.499999 0.342676 0.299999 0.542676C0.0999992 0.742676 0 0.992676 0 1.29268C0 3.44268 0.479333 5.53868 1.438 7.58068C2.39667 9.62268 3.66333 11.431 5.238 13.0057C6.81267 14.5803 8.621 15.847 10.663 16.8057C12.705 17.7643 14.8007 18.2433 16.95 18.2427Z" fill="#1E1E1E"/>
</svg>
