<svg width="17" height="19" viewBox="0 0 17 19" fill="none" xmlns="http://www.w3.org/2000/svg">
<path d="M16.9126 16.5345L15.6849 12.8427H14.3378L15.0859 16.4427H1.9146L2.6627 12.8427H1.31558L0.087005 16.5345C-0.22463 17.4741 0.327691 18.2427 1.31558 18.2427H15.6849C16.6728 18.2427 17.2251 17.4741 16.9126 16.5345ZM12.9907 4.74268C12.9907 3.5492 12.5176 2.40461 11.6754 1.5607C10.8333 0.716781 9.69117 0.242676 8.50024 0.242676C7.30931 0.242676 6.16715 0.716781 5.32504 1.5607C4.48292 2.40461 4.00983 3.5492 4.00983 4.74268C4.00983 9.04018 8.50024 13.7427 8.50024 13.7427C8.50024 13.7427 12.9907 9.04018 12.9907 4.74268ZM6.07542 4.79668C6.07542 4.47761 6.13814 4.16166 6.26001 3.86689C6.38188 3.57212 6.56051 3.3043 6.78569 3.07872C7.01086 2.85315 7.27818 2.67424 7.57237 2.55222C7.86656 2.4302 8.18185 2.36746 8.50024 2.36758C9.14322 2.36758 9.75987 2.62355 10.2145 3.07917C10.6692 3.5348 10.9246 4.15277 10.9246 4.79713C10.9246 5.44148 10.6692 6.05945 10.2145 6.51508C9.75987 6.97071 9.14322 7.22668 8.50024 7.22668C7.85714 7.22668 7.24037 6.97066 6.78563 6.51495C6.33089 6.05923 6.07542 5.44115 6.07542 4.79668Z" fill="#444444"/>
</svg>
