<svg width="18" height="19" viewBox="0 0 18 19" fill="none" xmlns="http://www.w3.org/2000/svg">
<path d="M11.295 13.3377L12.555 12.0552L9.9 9.40018V5.64268H8.1V10.1427L11.295 13.3377ZM8.1 3.84268H9.9V2.04268H8.1V3.84268ZM14.4 10.1427H16.2V8.34268H14.4V10.1427ZM8.1 16.4427H9.9V14.6427H8.1V16.4427ZM1.8 10.1427H3.6V8.34268H1.8V10.1427ZM9 18.2427C7.755 18.2427 6.585 18.0063 5.49 17.5335C4.395 17.0607 3.4425 16.4196 2.6325 15.6102C1.8225 14.8002 1.1814 13.8477 0.7092 12.7527C0.237 11.6577 0.0006 10.4877 0 9.24267C0 7.99767 0.2364 6.82768 0.7092 5.73268C1.182 4.63768 1.8231 3.68518 2.6325 2.87518C3.4425 2.06518 4.395 1.42408 5.49 0.951876C6.585 0.479676 7.755 0.243276 9 0.242676C10.245 0.242676 11.415 0.479076 12.51 0.951876C13.605 1.42468 14.5575 2.06578 15.3675 2.87518C16.1775 3.68518 16.8189 4.63768 17.2917 5.73268C17.7645 6.82768 18.0006 7.99767 18 9.24267C18 10.4877 17.7636 11.6577 17.2908 12.7527C16.818 13.8477 16.1769 14.8002 15.3675 15.6102C14.5575 16.4202 13.605 17.0616 12.51 17.5344C11.415 18.0072 10.245 18.2433 9 18.2427Z" fill="#444444"/>
</svg>
