<svg width="10" height="18" viewBox="0 0 10 18" fill="none" xmlns="http://www.w3.org/2000/svg">
<path d="M5 18C3.60606 18 2.42424 17.52 1.45455 16.56C0.484848 15.6 0 14.43 0 13.05V3.6C0 2.61 0.356061 1.7625 1.06818 1.0575C1.7803 0.3525 2.63636 0 3.63636 0C4.63636 0 5.49242 0.3525 6.20455 1.0575C6.91667 1.7625 7.27273 2.61 7.27273 3.6V12.15C7.27273 12.78 7.05303 13.3125 6.61364 13.7475C6.17424 14.1825 5.63636 14.4 5 14.4C4.36364 14.4 3.82576 14.1825 3.38636 13.7475C2.94697 13.3125 2.72727 12.78 2.72727 12.15V3.6H4.09091V12.15C4.09091 12.405 4.17818 12.6189 4.35273 12.7917C4.52727 12.9645 4.74303 13.0506 5 13.05C5.25758 13.05 5.47364 12.9636 5.64818 12.7908C5.82273 12.618 5.9097 12.4044 5.90909 12.15V3.6C5.90909 2.97 5.68939 2.4375 5.25 2.0025C4.81061 1.5675 4.27273 1.35 3.63636 1.35C3 1.35 2.46212 1.5675 2.02273 2.0025C1.58333 2.4375 1.36364 2.97 1.36364 3.6V13.05C1.36364 14.04 1.7197 14.8875 2.43182 15.5925C3.14394 16.2975 4 16.65 5 16.65C6 16.65 6.85606 16.2975 7.56818 15.5925C8.2803 14.8875 8.63636 14.04 8.63636 13.05V3.6H10V13.05C10 14.43 9.51515 15.6 8.54545 16.56C7.57576 17.52 6.39394 18 5 18Z" fill="#454545"/>
</svg>
