<svg width="20" height="19" viewBox="0 0 20 19" fill="none" xmlns="http://www.w3.org/2000/svg">
<path d="M17 6.24268C16.1667 6.24268 15.4583 5.95101 14.875 5.36768C14.2917 4.78434 14 4.07601 14 3.24268C14 2.40934 14.2917 1.70101 14.875 1.11768C15.4583 0.534342 16.1667 0.242676 17 0.242676C17.8333 0.242676 18.5417 0.534342 19.125 1.11768C19.7083 1.70101 20 2.40934 20 3.24268C20 4.07601 19.7083 4.78434 19.125 5.36768C18.5417 5.95101 17.8333 6.24268 17 6.24268ZM2 18.2427C1.45 18.2427 0.979002 18.0467 0.587002 17.6547C0.195002 17.2627 -0.000664969 16.792 1.69779e-06 16.2427V4.24268C1.69779e-06 3.69268 0.196002 3.22168 0.588002 2.82968C0.980002 2.43768 1.45067 2.24201 2 2.24268H12.1C12.0333 2.57601 12 2.90934 12 3.24268C12 3.57601 12.0333 3.90934 12.1 4.24268C12.2167 4.77601 12.4083 5.27201 12.675 5.73068C12.9417 6.18934 13.2667 6.59334 13.65 6.94268L10 9.24268L3.3 5.04268C3.01667 4.85934 2.729 4.85101 2.437 5.01768C2.145 5.18434 1.99934 5.43434 2 5.76768C2 5.91768 2.03333 6.05534 2.1 6.18068C2.16667 6.30601 2.26667 6.41001 2.4 6.49268L9.475 10.9177C9.64167 11.0177 9.81667 11.0677 10 11.0677C10.1833 11.0677 10.3583 11.0177 10.525 10.9177L15.275 7.94268C15.5583 8.04268 15.8417 8.11768 16.125 8.16768C16.4083 8.21768 16.7 8.24268 17 8.24268C17.5333 8.24268 18.0583 8.15934 18.575 7.99268C19.0917 7.82601 19.5667 7.57601 20 7.24268V16.2427C20 16.7927 19.804 17.2637 19.412 17.6557C19.02 18.0477 18.5493 18.2433 18 18.2427H2Z" fill="#444444"/>
</svg>
