<svg width="20" height="18" viewBox="0 0 20 18" fill="none" xmlns="http://www.w3.org/2000/svg">
<path d="M17 6C16.1667 6 15.4583 5.70833 14.875 5.125C14.2917 4.54167 14 3.83333 14 3C14 2.16667 14.2917 1.45833 14.875 0.875C15.4583 0.291667 16.1667 0 17 0C17.8333 0 18.5417 0.291667 19.125 0.875C19.7083 1.45833 20 2.16667 20 3C20 3.83333 19.7083 4.54167 19.125 5.125C18.5417 5.70833 17.8333 6 17 6ZM2.00001 18C1.45001 18 0.979005 17.804 0.587005 17.412C0.195005 17.02 -0.000661154 16.5493 5.51249e-06 16V4C5.51249e-06 3.45 0.196006 2.979 0.588006 2.587C0.980006 2.195 1.45067 1.99933 2.00001 2H12.1C12.0333 2.33333 12 2.66667 12 3C12 3.33333 12.0333 3.66667 12.1 4C12.2167 4.53333 12.4083 5.02933 12.675 5.488C12.9417 5.94667 13.2667 6.35067 13.65 6.7L10 9L3.30001 4.8C3.01667 4.61667 2.72901 4.60833 2.43701 4.775C2.14501 4.94167 1.99934 5.19167 2.00001 5.525C2.00001 5.675 2.03334 5.81267 2.10001 5.938C2.16667 6.06333 2.26667 6.16733 2.40001 6.25L9.47501 10.675C9.64167 10.775 9.81667 10.825 10 10.825C10.1833 10.825 10.3583 10.775 10.525 10.675L15.275 7.7C15.5583 7.8 15.8417 7.875 16.125 7.925C16.4083 7.975 16.7 8 17 8C17.5333 8 18.0583 7.91667 18.575 7.75C19.0917 7.58333 19.5667 7.33333 20 7V16C20 16.55 19.804 17.021 19.412 17.413C19.02 17.805 18.5493 18.0007 18 18H2.00001Z" fill="white"/>
</svg>
